<?xml version="1.0" encoding="iso-8859-1"?>
<!-- Uploaded to: SVG Repo, www.svgrepo.com, Generator: SVG Repo Mixer Tools -->
<svg version="1.1" id="Layer_1" xmlns="http://www.w3.org/2000/svg" xmlns:xlink="http://www.w3.org/1999/xlink" 
	 viewBox="0 0 502 502" xml:space="preserve">
<g>
	<path style="fill:#5CC9C1;" d="M126.882,367.326c-34.735,0-62.894-28.159-62.894-62.894s28.159-62.894,62.894-62.894V367.326z"/>
	<path style="fill:#5CC9C1;" d="M375.118,367.326c34.735,0,62.894-28.159,62.894-62.894s-28.159-62.894-62.894-62.894V367.326z"/>
	<g>
		<rect x="237.642" y="457.492" style="fill:#FFF9E6;" width="34.508" height="34.508"/>
		<g>
			<path d="M390.148,57.864C352.834,20.55,303.417,0,251,0S149.166,20.55,111.852,57.864
				c-37.314,37.313-57.864,86.73-57.864,139.147v107.978c0,0.19,0.018,0.375,0.028,0.562c0.603,39.678,33.047,71.775,72.866,71.775
				c5.523,0,10-4.477,10-10V241.538c0-5.523-4.477-10-10-10c-20.812,0-39.6,8.781-52.894,22.816v-57.343
				C73.988,99.407,153.396,20,251,20s177.012,79.407,177.012,177.011v57.343c-13.294-14.035-32.082-22.816-52.894-22.816
				c-5.523,0-10,4.477-10,10v125.788c0,5.523,4.477,10,10,10c39.819,0,72.263-32.097,72.866-71.775
				c0.01-0.187,0.028-0.372,0.028-0.562V197.011C448.012,144.594,427.462,95.177,390.148,57.864z M116.882,252.486v103.891
				c-24.401-4.688-42.894-26.198-42.894-51.945C73.988,278.684,92.481,257.174,116.882,252.486z M385.118,356.377V252.486
				c24.401,4.688,42.894,26.198,42.894,51.946C428.012,330.18,409.519,351.69,385.118,356.377z"/>
			<path d="M423.857,385.864c-5.047-2.246-10.958,0.024-13.202,5.07c-2.919,6.559-6.225,12.923-9.825,18.915
				c-2.845,4.734-1.313,10.878,3.42,13.722c1.612,0.969,3.388,1.43,5.142,1.43c3.395,0,6.705-1.729,8.581-4.851
				c4.02-6.689,7.705-13.783,10.955-21.084C431.173,394.021,428.903,388.11,423.857,385.864z"/>
			<path d="M396.915,433.57c-4.104-3.697-10.428-3.367-14.123,0.736c-25.968,28.826-60.606,45.086-100.642,47.396v-24.211
				c0-5.523-4.477-10-10-10h-34.508c-5.523,0-10,4.477-10,10V492c0,5.523,4.477,10,10,10h34.508
				c50.098,0,93.495-18.779,125.501-54.307C401.348,443.59,401.018,437.267,396.915,433.57z M247.642,467.492h14.508V482h-14.508
				V467.492z"/>
		</g>
	</g>
</g>
</svg>